# xmcd
#
# Track frame offsets: 
#        150
#        17038
#        32383
#        48525
#        71570
#        90028
#        125390
#        142470
#        157236
#        175059
#        197031
#        210204
#        236588
#
# Disc length: 3525 seconds
#
# Revision: 0
# Processed by: cddbd v1.5.2PL0 Copyright (c) Steve Scherf et al.
# Submitted via: ExactAudioCopy v0.95b4
#
DISCID=ac0dc30d
DTITLE=The Nighthawks - Blue Moon in Your Eye
DYEAR=2006
DGENRE=Blues
TTITLE0=Woke Up this Morning (Theme Song from The Sopranos)
TTITLE1=Born in Chicago
TTITLE2=Thirty Days
TTITLE3=Jump into My Fire
TTITLE4=Big River
TTITLE5=Black Night
TTITLE6=You Don't Love Me (You Don't Care)
TTITLE7=None of that Stuff
TTITLE8=Soul of a Man
TTITLE9=Put Your Cat Clothes On
TTITLE10=Walkin' After Midnight
TTITLE11=Same Thing
TTITLE12=Can't Judge a Book By
EXTD=
EXTT0=
EXTT1=
EXTT2=
EXTT3=
EXTT4=
EXTT5=
EXTT6=
EXTT7=
EXTT8=
EXTT9=
EXTT10=
EXTT11=
EXTT12=
PLAYORDER=
